<?xml version="1.0" standalone="no"?>
<!DOCTYPE svg PUBLIC "-//W3C//DTD SVG 20010904//EN"
 "http://www.w3.org/TR/2001/REC-SVG-20010904/DTD/svg10.dtd">
<svg version="1.0" xmlns="http://www.w3.org/2000/svg"
 width="200.000000pt" height="200.000000pt" viewBox="0 0 200.000000 200.000000"
 preserveAspectRatio="xMidYMid meet">
<metadata>
Created by potrace 1.11, written by Peter Selinger 2001-2013
</metadata>
<g transform="translate(0.000000,200.000000) scale(0.100000,-0.100000)"
fill="#000000" stroke="none">
<path d="M835 1607 c-17 -5 -38 -16 -47 -24 -16 -14 -16 -18 2 -54 11 -21 20
-42 20 -47 0 -5 -18 -17 -40 -27 -22 -10 -40 -24 -40 -31 0 -8 -30 -28 -67
-44 -148 -67 -217 -204 -181 -360 34 -143 203 -398 332 -499 17 -13 16 -15
-19 -32 -45 -22 -75 -48 -75 -64 0 -6 -22 -19 -49 -29 -27 -9 -57 -23 -67 -30
-15 -11 -23 -10 -51 7 -64 37 -183 31 -273 -14 -110 -54 -179 -198 -156 -323
l7 -36 935 0 934 0 -2 183 -3 182 -58 29 c-125 63 -300 37 -387 -56 -18 -20
-19 -19 -38 25 -24 53 -50 73 -120 89 -35 9 -54 19 -61 34 -11 26 -78 50 -143
53 -12 1 5 24 54 74 80 81 126 147 173 251 52 114 72 228 53 306 -5 19 -10 43
-13 53 -6 27 -44 85 -74 114 -40 38 -141 83 -218 95 -49 9 -73 18 -85 33 -13
16 -27 22 -53 20 -34 -1 -35 0 -35 34 0 55 -10 80 -34 87 -33 11 -89 11 -121
1z"/>
</g>
</svg>
